<svg id="visual" viewBox="0 0 900 600" width="900" height="600" xmlns="http://www.w3.org/2000/svg" xmlns:xlink="http://www.w3.org/1999/xlink" version="1.1"><rect x="0" y="0" width="900" height="600" fill="#FFFFFF"></rect><path d="M400 0L404.2 14.3C408.3 28.7 416.7 57.3 420 85.8C423.3 114.3 421.7 142.7 381.2 171.2C340.7 199.7 261.3 228.3 229.5 257C197.7 285.7 213.3 314.3 252.8 343C292.3 371.7 355.7 400.3 397.3 428.8C439 457.3 459 485.7 467.7 514.2C476.3 542.7 473.7 571.3 472.3 585.7L471 600L0 600L0 585.7C0 571.3 0 542.7 0 514.2C0 485.7 0 457.3 0 428.8C0 400.3 0 371.7 0 343C0 314.3 0 285.7 0 257C0 228.3 0 199.7 0 171.2C0 142.7 0 114.3 0 85.8C0 57.3 0 28.7 0 14.3L0 0Z" fill="#F2FAFD" stroke-linecap="round" stroke-linejoin="miter"></path></svg>